<svg xmlns="http://www.w3.org/2000/svg" viewBox="0 0 512 512"><defs><linearGradient id="g" x1="32" y1="32" x2="480" y2="480" gradientUnits="userSpaceOnUse"><stop stop-color="#FF6B4A"/><stop offset="1" stop-color="#F43F8E"/></linearGradient></defs><rect width="512" height="512" rx="112" fill="url(#g)"/><path d="M128 268 L256 148 L384 268" stroke="white" stroke-width="28" stroke-linecap="round" stroke-linejoin="round" fill="none"/><path d="M164 260 V360 a22 22 0 0 0 22 22 h140 a22 22 0 0 0 22-22 V260" stroke="white" stroke-width="28" stroke-linecap="round" fill="none"/><path d="M256 334 c-29-21 -49-38 -49-58 c0-15 11-26 26-26 c9 0 18 5 23 13 c5-8 14-13 23-13 c15 0 26 11 26 26 c0 20 -20 37 -49 58 z" fill="white"/></svg>